<svg xmlns="http://www.w3.org/2000/svg" viewBox="0 0 281.957 232.68" width="281.957" height="232.68">
  <path d="M125.882 130.402C125.038 130.402 124.179 130.402 123.304 130.406C105.983 130.476 93.6551 131.616 85.616 133.898L84.5262 134.206L83.9129 135.05C82.6121 136.835 78.198 143.448 70.7879 154.71C63.2527 166.167 57.698 177.456 54.2762 188.269L54.2748 188.273C54.1057 188.812 53.662 190.225 54.7488 191.464C55.3816 192.191 56.3465 192.609 57.3973 192.609C58.784 192.609 59.7645 191.925 60.5418 191.253L60.6082 191.195L60.6707 191.136C66.5027 185.472 74.7215 180.573 85.0965 176.577C95.7176 172.495 107.05 169.171 118.776 166.691C130.647 164.191 142.491 162.253 153.987 160.937C165.554 159.605 176.624 158.616 186.893 157.999L190.268 157.796L189.835 154.878C189.108 149.956 185.854 145.527 180.163 141.702C174.858 138.136 167.749 135.214 159.038 133.019C152.675 131.288 141.807 130.425 125.882 130.402ZM185.589 166.374C164.061 167.073 144.975 168.945 128.87 171.941C112.628 174.964 99.1629 178.964 88.8543 183.823C77.9324 188.972 71.4949 195.546 69.7293 203.366C68.5691 208.148 69.909 212.335 73.6082 215.448C76.909 218.218 80.6863 220.148 84.8309 221.179C89.991 222.448 95.4246 223.097 100.983 223.105C105.948 223.113 111.143 222.609 116.425 221.609C127.405 219.534 138.014 215.96 147.948 210.98C157.87 206.007 166.663 199.87 174.085 192.745C181.639 185.472 186.593 177.749 188.807 169.796L189.8 166.238L185.589 166.374ZM97.8934 232.124C81.0418 231.519 63.5184 225.866 56.0809 211.21C54.5535 208.202 52.1512 204.249 48.9754 205.39C47.2488 206.007 46.4285 207.929 45.8035 209.652C44.1395 214.226 42.4754 218.796 40.8074 223.37C35.8387 220.601 33.1434 214.792 32.741 209.116C32.3426 203.515 33.8504 197.96 35.573 192.609C39.0535 181.788 43.2137 171.202 48.1199 160.948C62.409 131.105 78.577 101.437 100.858 76.7727C110.499 66.0969 121.534 56.2258 134.854 50.7962C148.171 45.3626 164.136 44.9407 176.405 52.4485C146.636 63.5071 124.358 88.179 103.327 111.976C102.421 112.995 101.456 114.241 101.737 115.577C102.19 117.691 105.085 117.929 107.233 117.659C139.393 113.585 171.147 106.316 201.878 95.9876C222.612 89.0188 243.28 80.4212 259.866 66.1516C266.854 60.1399 273.499 50.843 269.831 42.3821C267.995 38.1555 263.948 35.3157 259.952 33.0657C249.018 26.9055 236.823 23.3157 224.339 22.0344C147.69 14.1829 68.6746 33.0422 3.66289 74.3274C-0.454295 68.8665 -0.278515 61.0227 2.61602 54.8235C5.86992 47.8704 12.0223 42.6594 18.1824 38.2102C26.948 31.8821 36.4402 26.5813 46.4988 22.6126C100.655 1.23365 160.659 -4.61791 218.042 4.9485C229.163 6.80006 240.089 9.72584 250.741 13.4212C261.772 17.2454 274.764 22.7844 279.577 33.9915C282.772 41.429 281.651 50.218 278.038 57.4563C274.421 64.6985 268.546 70.5696 262.221 75.6204C232.733 99.1751 193.889 106.308 157.288 115.527C155.96 115.863 147.147 117.671 147.878 118.831C149.78 121.855 157.464 122.995 161.214 122.792C173.542 122.136 186.343 122.714 197.479 128.042C208.616 133.366 217.741 144.386 217.682 156.73L247.116 158.948C247.116 158.948 255.081 170.105 252.53 168.738C243.159 163.73 231.889 164.476 221.3 165.355C219.616 165.495 217.874 165.656 216.405 166.484C214.752 167.419 213.666 169.075 212.622 170.667L212.55 170.777C189.089 206.495 147.983 229.988 105.3 232.073C102.866 232.195 100.386 232.214 97.8934 232.124Z" fill="#231E1F" fill-rule="evenodd" />
</svg>