<svg width="147" height="42" viewBox="0 0 874 249" fill="none" xmlns="http://www.w3.org/2000/svg">
<path d="M247.593 236.956C247.593 238.179 247.749 239.183 248.073 239.972C248.394 240.761 248.862 241.382 249.491 241.839C250.116 242.292 250.909 242.609 251.87 242.784C252.835 242.964 253.976 243.05 255.308 243.054C256.636 243.054 257.839 242.847 258.925 242.429C260.015 242.011 260.929 241.452 261.671 240.753C262.417 240.054 263.003 239.234 263.433 238.288C263.854 237.347 264.062 236.351 264.062 235.304C264.065 234.077 263.808 232.941 263.284 231.89C262.769 230.843 261.995 229.929 260.968 229.159C259.944 228.39 258.687 227.784 257.202 227.343C255.71 226.906 254.026 226.683 252.136 226.683C251.413 226.679 250.679 226.687 249.933 226.702C249.187 226.722 248.417 226.781 247.608 226.886L247.593 236.956ZM247.616 223.527C248.3 223.527 248.921 223.546 249.487 223.581C250.046 223.62 250.573 223.636 251.058 223.636C254.753 223.644 257.472 223.148 259.194 222.156C260.929 221.159 261.8 219.527 261.804 217.253C261.804 216.101 261.554 215.101 261.05 214.265C260.55 213.425 259.878 212.722 259.03 212.163C258.187 211.601 257.194 211.191 256.046 210.925C254.905 210.659 253.663 210.527 252.339 210.527C251.335 210.523 250.437 210.566 249.655 210.652C248.874 210.741 248.198 210.831 247.632 210.941L247.616 223.527ZM237.612 216.066C237.612 214.14 237.229 212.777 236.472 211.968C235.706 211.163 234.343 210.605 232.37 210.284L232.374 207.452C233.339 207.452 234.476 207.562 235.78 207.773C237.093 207.988 238.671 208.093 240.522 208.097C241.323 208.097 242.179 208.066 243.089 207.995C243.991 207.925 245.026 207.859 246.194 207.788C247.362 207.722 248.702 207.652 250.229 207.585C251.761 207.519 253.53 207.484 255.538 207.488C258.476 207.491 260.979 207.734 263.05 208.206C265.124 208.683 266.808 209.323 268.112 210.128C269.417 210.937 270.37 211.89 270.944 212.991C271.526 214.093 271.819 215.273 271.819 216.534C271.815 217.863 271.519 219.007 270.933 219.968C270.354 220.929 269.558 221.734 268.546 222.378C267.546 223.023 266.397 223.531 265.108 223.894C263.819 224.261 262.452 224.511 261.011 224.648L261.007 224.753C262.608 224.964 264.233 225.312 265.858 225.784C267.487 226.257 268.96 226.906 270.292 227.73C271.62 228.554 272.702 229.577 273.542 230.804C274.382 232.031 274.808 233.499 274.804 235.214C274.804 236.226 274.53 237.37 273.987 238.648C273.444 239.925 272.456 241.109 271.022 242.21C269.593 243.308 267.624 244.234 265.108 244.984C262.593 245.73 259.39 246.101 255.483 246.097C254.073 246.093 252.831 246.054 251.745 245.984C250.663 245.913 249.632 245.843 248.667 245.769C247.702 245.698 246.741 245.628 245.776 245.554C244.808 245.484 243.741 245.448 242.577 245.445C240.085 245.441 237.929 245.499 236.124 245.62C234.312 245.741 233.042 245.886 232.319 246.062L232.323 243.23C233.327 243.093 234.167 242.89 234.827 242.628C235.491 242.366 236.026 242.019 236.429 241.581C236.827 241.148 237.124 240.597 237.304 239.929C237.487 239.265 237.577 238.445 237.581 237.468L237.612 216.066Z" fill="#2E2E2F"/>
<path d="M310.011 210.402C307.757 210.499 306.214 210.98 305.362 211.835C304.519 212.691 304.093 213.87 304.089 215.374L304.065 231.058C304.062 234.87 305.163 237.781 307.374 239.8C309.589 241.812 312.776 242.823 316.964 242.827C318.733 242.831 320.382 242.534 321.913 241.945C323.44 241.351 324.769 240.503 325.901 239.402C327.022 238.304 327.913 236.96 328.554 235.37C329.198 233.781 329.522 231.972 329.526 229.941L329.542 217.562C329.546 216.304 329.425 215.238 329.187 214.363C328.948 213.488 328.538 212.761 327.956 212.183C327.374 211.605 326.604 211.187 325.636 210.921C324.671 210.656 323.487 210.491 322.077 210.417L322.081 207.585C322.722 207.656 323.757 207.781 325.187 207.956C326.612 208.136 328.472 208.226 330.765 208.226C333.058 208.23 334.917 208.148 336.347 207.976C337.776 207.8 338.812 207.679 339.452 207.609L339.448 210.445C337.315 210.546 335.737 211.085 334.714 212.062C333.69 213.042 333.171 214.562 333.167 216.624L333.151 228.476C333.147 231.171 332.769 233.636 332.019 235.87C331.276 238.113 330.073 240.031 328.425 241.636C326.772 243.241 324.628 244.491 321.991 245.378C319.358 246.269 316.151 246.706 312.37 246.702C309.597 246.698 307.085 246.316 304.835 245.562C302.577 244.808 300.651 243.745 299.042 242.382C297.444 241.015 296.206 239.406 295.343 237.55C294.479 235.695 294.05 233.667 294.05 231.464L294.073 216.777C294.077 214.573 293.608 212.984 292.663 211.999C291.722 211.019 290.026 210.476 287.569 210.366L287.573 207.534C288.382 207.605 289.729 207.73 291.616 207.909C293.507 208.085 295.901 208.175 298.792 208.183C301.69 208.187 304.081 208.101 305.976 207.929C307.866 207.757 309.21 207.636 310.015 207.566L310.011 210.402Z" fill="#2E2E2F"/>
<path d="M357.722 216.238C357.726 214.316 357.343 212.952 356.585 212.144C355.815 211.343 354.448 210.781 352.483 210.464L352.487 207.628C353.245 207.698 354.483 207.823 356.194 208.003C357.901 208.179 360.089 208.269 362.741 208.273C365.394 208.277 367.577 208.195 369.288 208.023C370.999 207.851 372.233 207.73 372.995 207.659L372.991 210.491C371.987 210.667 371.151 210.874 370.487 211.12C369.827 211.363 369.288 211.702 368.886 212.136C368.487 212.577 368.19 213.124 368.011 213.788C367.827 214.452 367.737 215.277 367.737 216.253L367.706 237.656C367.702 238.636 367.792 239.456 367.972 240.12C368.151 240.784 368.444 241.339 368.843 241.773C369.245 242.214 369.78 242.562 370.44 242.823C371.104 243.093 371.94 243.292 372.944 243.433L372.94 246.269C372.175 246.195 370.94 246.07 369.233 245.894C367.526 245.714 365.339 245.624 362.687 245.62C360.03 245.616 357.847 245.702 356.14 245.874C354.429 246.046 353.19 246.167 352.429 246.238L352.433 243.402C353.433 243.265 354.276 243.066 354.94 242.804C355.601 242.542 356.132 242.195 356.542 241.757C356.94 241.323 357.229 240.769 357.409 240.105C357.597 239.441 357.69 238.62 357.69 237.64L357.722 216.238Z" fill="#2E2E2F"/>
<path d="M392.464 216.288C392.468 214.366 392.089 213.003 391.323 212.195C390.565 211.394 389.194 210.831 387.226 210.515L387.229 207.679C387.995 207.749 389.233 207.874 390.944 208.054C392.651 208.23 394.831 208.32 397.483 208.323C400.136 208.327 402.327 208.245 404.062 208.073C405.788 207.902 407.097 207.781 407.987 207.71L407.983 210.542C406.851 210.648 405.937 210.82 405.233 211.062C404.526 211.308 403.972 211.656 403.573 212.109C403.163 212.566 402.886 213.132 402.722 213.816C402.562 214.495 402.479 215.327 402.479 216.304L402.452 235.609C402.448 236.972 402.573 238.113 402.835 239.019C403.101 239.929 403.507 240.644 404.073 241.171C404.64 241.695 405.386 242.073 406.335 242.304C407.272 242.531 408.452 242.644 409.862 242.648C411.632 242.652 413.245 242.523 414.683 242.261C416.14 242.003 417.429 241.542 418.573 240.878C419.729 240.218 420.718 239.351 421.573 238.284C422.417 237.222 423.14 235.866 423.745 234.226L426.526 234.23C426.44 235.171 426.284 236.179 426.026 237.241C425.784 238.308 425.519 239.402 425.218 240.519C424.913 241.64 424.636 242.784 424.394 243.952C424.151 245.124 424.003 246.273 423.968 247.39C423.327 247.109 422.714 246.87 422.163 246.679C421.597 246.484 420.948 246.327 420.226 246.202C419.503 246.077 418.636 245.984 417.636 245.909C416.628 245.839 415.362 245.784 413.839 245.749C412.312 245.71 410.46 245.691 408.292 245.687C406.112 245.687 403.503 245.683 400.444 245.679C398.038 245.671 396.003 245.702 394.354 245.773C392.706 245.843 391.358 245.906 390.308 245.976C389.261 246.046 388.522 246.113 388.081 246.183C387.636 246.253 387.37 246.288 387.292 246.288H387.171L387.179 243.452C388.183 243.316 389.019 243.116 389.683 242.855C390.351 242.593 390.882 242.245 391.276 241.808C391.687 241.374 391.979 240.82 392.159 240.156C392.339 239.491 392.433 238.671 392.433 237.691L392.464 216.288Z" fill="#2E2E2F"/>
<path d="M453.542 237.046C453.542 239.042 454.171 240.589 455.437 241.691C456.698 242.796 458.644 243.351 461.257 243.355C463.229 243.355 465.155 243.015 467.054 242.339C468.944 241.659 470.628 240.683 472.124 239.409C473.612 238.132 474.812 236.581 475.718 234.745C476.624 232.909 477.077 230.855 477.081 228.581C477.085 226.066 476.71 223.722 475.948 221.554C475.187 219.382 474.054 217.511 472.55 215.937C471.042 214.359 469.167 213.116 466.909 212.202C464.659 211.292 462.03 210.831 459.011 210.827C458.089 210.827 457.179 210.886 456.296 211.007C455.409 211.128 454.507 211.277 453.581 211.448L453.542 237.046ZM443.558 216.366C443.562 214.441 443.155 213.077 442.331 212.269C441.507 211.464 440.108 210.906 438.14 210.589L438.144 207.753C438.667 207.753 439.312 207.792 440.073 207.863C440.839 207.933 441.636 208.003 442.46 208.077C443.28 208.148 444.124 208.218 444.991 208.288C445.851 208.363 446.647 208.398 447.374 208.398C448.218 208.398 449.112 208.366 450.058 208.296C451.003 208.226 452.089 208.163 453.315 208.093C454.542 208.023 455.979 207.956 457.632 207.886C459.28 207.823 461.229 207.788 463.479 207.792C467.499 207.796 471.03 208.284 474.065 209.249C477.101 210.214 479.647 211.523 481.69 213.167C483.737 214.816 485.276 216.749 486.296 218.972C487.323 221.195 487.831 223.566 487.827 226.081C487.823 229.261 487.132 232.113 485.761 234.628C484.394 237.144 482.487 239.273 480.054 241.019C477.612 242.765 474.729 244.097 471.39 245.019C468.046 245.941 464.429 246.402 460.53 246.394C459.565 246.394 458.616 246.355 457.694 246.284C456.769 246.214 455.823 246.144 454.858 246.07C453.89 245.999 452.866 245.929 451.78 245.855C450.694 245.784 449.511 245.749 448.222 245.745C447.019 245.745 445.94 245.761 444.999 245.792C444.05 245.827 443.187 245.87 442.401 245.921C441.612 245.972 440.882 246.042 440.198 246.128C439.515 246.214 438.808 246.292 438.089 246.363L438.093 243.531C439.097 243.39 439.94 243.191 440.624 242.929C441.312 242.667 441.866 242.32 442.288 241.882C442.71 241.448 443.022 240.894 443.222 240.23C443.425 239.57 443.526 238.745 443.526 237.769L443.558 216.366Z" fill="#2E2E2F"/>
<path d="M506.722 216.456C506.722 214.534 506.315 213.171 505.491 212.363C504.671 211.558 503.269 210.995 501.3 210.679L501.304 207.847H501.425C502.026 207.847 502.694 207.886 503.417 207.952C504.14 208.027 505.065 208.097 506.19 208.171C507.315 208.241 508.694 208.312 510.327 208.386C511.948 208.456 513.972 208.495 516.386 208.499C519.202 208.503 521.589 208.507 523.565 208.511C525.573 208.511 527.272 208.507 528.663 208.491C530.046 208.476 531.194 208.441 532.097 208.39C533.007 208.339 533.796 208.269 534.483 208.187C535.167 208.097 535.8 207.991 536.386 207.87C536.968 207.753 537.62 207.585 538.347 207.378C538.183 207.761 538.062 208.339 537.983 209.105C537.897 209.878 537.858 210.628 537.858 211.363C537.858 212.027 537.894 212.589 537.976 213.042C538.054 213.495 538.097 213.913 538.097 214.3C538.093 215.14 537.933 216.015 537.604 216.921H535.319C535.319 215.835 535.046 214.952 534.503 214.269C533.964 213.585 533.171 213.042 532.124 212.64C531.077 212.238 529.784 211.952 528.237 211.792C526.683 211.636 524.909 211.554 522.897 211.55C521.608 211.55 520.46 211.593 519.456 211.679C518.452 211.761 517.546 211.859 516.741 211.96L516.722 225.073L524.323 225.085C526.495 225.089 528.085 224.761 529.089 224.097C530.097 223.433 530.604 222.226 530.604 220.48L533.261 220.484C533.339 220.765 533.382 221.042 533.382 221.323C533.378 221.605 533.378 221.882 533.378 222.159C533.378 222.933 533.335 223.691 533.257 224.441C533.171 225.195 533.132 225.937 533.132 226.671C533.132 227.406 533.167 228.148 533.249 228.902C533.327 229.656 533.366 230.413 533.366 231.187C533.366 231.464 533.366 231.745 533.366 232.023C533.362 232.304 533.323 232.581 533.241 232.863L530.589 232.859C530.593 231.077 530.089 229.839 529.085 229.159C528.081 228.476 526.491 228.132 524.319 228.128L516.718 228.116L516.702 237.98C516.702 239.656 517.179 240.882 518.147 241.652C519.108 242.421 520.956 242.812 523.694 242.816C525.386 242.816 527.022 242.706 528.612 242.48C530.202 242.257 531.647 241.866 532.96 241.308C534.265 240.749 535.362 239.991 536.249 239.031C537.136 238.07 537.698 236.855 537.944 235.386L540.718 235.39C540.718 236.613 540.632 237.585 540.476 238.304C540.312 239.019 540.128 239.741 539.925 240.48C539.726 241.21 539.542 242.093 539.378 243.124C539.214 244.159 539.132 245.601 539.132 247.452C538.05 246.929 536.823 246.534 535.456 246.269C534.085 246.003 532.136 245.87 529.601 245.866L510.179 245.835C508.128 245.835 506.335 245.866 504.804 245.933C503.276 246.003 502.089 246.171 501.249 246.456L501.253 243.62C502.257 243.484 503.101 243.284 503.788 243.019C504.472 242.761 505.026 242.413 505.448 241.976C505.87 241.538 506.183 240.988 506.386 240.323C506.585 239.659 506.687 238.839 506.69 237.859L506.722 216.456Z" fill="#2E2E2F"/>
<path d="M568.718 226.097L571.612 226.101C576.12 226.105 579.315 225.472 581.206 224.198C583.101 222.925 584.046 221.152 584.05 218.878C584.054 217.761 583.772 216.718 583.214 215.753C582.647 214.792 581.878 213.964 580.894 213.261C579.905 212.562 578.741 212.011 577.397 211.605C576.05 211.198 574.573 210.995 572.964 210.991C572.397 210.991 571.749 211.011 571.003 211.042C570.257 211.077 569.503 211.198 568.737 211.409L568.718 226.097ZM558.718 217.163C558.718 214.89 558.257 213.281 557.339 212.335C556.413 211.39 555.065 210.863 553.296 210.757L553.3 207.921C553.585 207.921 554.022 207.96 554.632 208.031C555.233 208.101 555.937 208.171 556.737 208.241C557.542 208.316 558.409 208.386 559.331 208.456C560.257 208.531 561.187 208.566 562.112 208.566C563.116 208.566 564.198 208.534 565.366 208.468C566.534 208.398 567.812 208.331 569.194 208.261C570.585 208.195 572.089 208.124 573.722 208.058C575.351 207.991 577.151 207.956 579.12 207.96C583.987 207.968 587.737 208.839 590.37 210.573C592.999 212.308 594.312 214.628 594.308 217.531C594.304 218.859 594.034 220.066 593.491 221.148C592.948 222.234 592.21 223.183 591.284 224.003C590.354 224.823 589.272 225.515 588.026 226.07C586.776 226.628 585.448 227.031 584.038 227.273C585.081 229.441 586.144 231.593 587.229 233.73C588.312 235.863 589.483 237.796 590.749 239.531C592.011 241.265 593.386 242.714 594.878 243.89C596.362 245.062 598.046 245.788 599.94 246.073L599.937 248.906C595.749 248.656 592.233 247.906 589.378 246.663C586.526 245.413 584.136 243.859 582.21 241.98C580.284 240.109 578.694 238.034 577.456 235.761C576.206 233.484 575.144 231.21 574.261 228.937L568.714 228.929L568.702 237.32C568.698 239.593 569.179 241.202 570.144 242.148C571.108 243.093 572.593 243.62 574.608 243.73L574.604 246.562C573.796 246.491 572.511 246.366 570.741 246.187C568.972 246.011 566.698 245.921 563.921 245.913C561.147 245.909 558.878 245.995 557.108 246.167C555.335 246.339 554.05 246.46 553.245 246.531L553.249 243.698C555.019 243.597 556.366 243.07 557.296 242.128C558.218 241.187 558.683 239.577 558.687 237.304L558.718 217.163Z" fill="#2E2E2F"/>
<path d="M637.257 218.011C637.261 216.788 636.991 215.714 636.452 214.784C635.905 213.859 635.155 213.077 634.19 212.445C633.222 211.816 632.085 211.343 630.78 211.027C629.476 210.71 628.038 210.55 626.472 210.546C624.378 210.546 622.741 210.972 621.554 211.827C620.366 212.683 619.769 213.792 619.769 215.156C619.765 216.484 620.335 217.605 621.483 218.515C622.628 219.425 624.046 220.249 625.729 220.984C627.421 221.722 629.265 222.468 631.28 223.222C633.292 223.98 635.136 224.874 636.827 225.906C638.511 226.941 639.929 228.195 641.069 229.663C642.218 231.132 642.784 232.952 642.784 235.12C642.78 236.835 642.343 238.425 641.483 239.89C640.612 241.359 639.397 242.636 637.823 243.714C636.257 244.796 634.37 245.644 632.179 246.249C629.987 246.859 627.562 247.163 624.909 247.159C624.022 247.156 623.093 247.097 622.104 246.972C621.116 246.847 620.144 246.714 619.179 246.574C618.253 246.433 617.386 246.3 616.585 246.175C615.78 246.05 615.136 245.992 614.655 245.992C613.608 245.988 612.647 246.046 611.761 246.167C610.874 246.292 609.991 246.437 609.104 246.613C609.749 245.843 610.222 244.909 610.526 243.808C610.827 242.706 611.046 241.577 611.167 240.425C611.288 239.273 611.386 238.163 611.472 237.093C611.554 236.027 611.733 235.148 612.019 234.445L614.433 234.449C614.429 235.952 614.71 237.3 615.269 238.492C615.831 239.683 616.624 240.695 617.647 241.534C618.675 242.378 619.89 243.019 621.296 243.456C622.698 243.894 624.253 244.117 625.937 244.117C627.147 244.12 628.272 243.984 629.319 243.702C630.366 243.425 631.28 243.05 632.065 242.581C632.847 242.109 633.464 241.55 633.909 240.902C634.351 240.257 634.573 239.585 634.573 238.882C634.577 237.452 634.007 236.245 632.858 235.265C631.718 234.284 630.296 233.398 628.612 232.609C626.925 231.82 625.069 231.031 623.062 230.242C621.054 229.449 619.206 228.531 617.515 227.476C615.827 226.425 614.417 225.163 613.269 223.695C612.128 222.222 611.558 220.406 611.562 218.238C611.565 216.558 611.944 215.046 612.71 213.702C613.476 212.355 614.538 211.23 615.882 210.32C617.229 209.413 618.815 208.718 620.62 208.234C622.433 207.745 624.382 207.503 626.476 207.507C627.519 207.507 628.507 207.562 629.433 207.667C630.351 207.773 631.218 207.917 632.026 208.089C632.866 208.265 633.687 208.409 634.468 208.515C635.249 208.62 635.983 208.675 636.671 208.675C637.675 208.675 638.565 208.617 639.354 208.495C640.136 208.374 641.011 208.226 641.979 208.05C641.616 208.507 641.323 209.144 641.097 209.964C640.878 210.788 640.698 211.679 640.55 212.64C640.413 213.601 640.265 214.566 640.128 215.523C639.987 216.488 639.835 217.316 639.671 218.015L637.257 218.011Z" fill="#2E2E2F"/>
<path d="M690.468 216.726C690.472 214.804 690.093 213.437 689.331 212.632C688.565 211.827 687.202 211.265 685.229 210.948L685.233 208.116C685.995 208.187 687.237 208.312 688.944 208.491C690.651 208.667 692.831 208.757 695.487 208.761C698.14 208.765 700.323 208.683 702.034 208.507C703.741 208.335 704.979 208.214 705.741 208.144L705.737 210.98C704.733 211.152 703.901 211.363 703.233 211.605C702.569 211.847 702.034 212.191 701.636 212.624C701.233 213.062 700.937 213.613 700.757 214.277C700.573 214.941 700.483 215.761 700.483 216.741L700.448 238.144C700.448 239.12 700.538 239.945 700.718 240.609C700.897 241.273 701.19 241.827 701.593 242.261C701.991 242.702 702.526 243.05 703.187 243.312C703.854 243.577 704.687 243.781 705.69 243.921L705.687 246.753C704.921 246.683 703.687 246.558 701.979 246.378C700.269 246.202 698.085 246.113 695.433 246.109C692.776 246.105 690.597 246.187 688.89 246.359C687.179 246.534 685.94 246.656 685.175 246.722L685.179 243.89C686.187 243.753 687.022 243.554 687.683 243.288C688.347 243.031 688.882 242.683 689.284 242.241C689.69 241.808 689.979 241.257 690.159 240.593C690.343 239.929 690.433 239.105 690.437 238.128L690.468 216.726Z" fill="#2E2E2F"/>
<path d="M769.929 211.073C767.753 211.175 766.226 211.906 765.339 213.269C764.452 214.632 764.011 216.87 764.003 219.98L763.987 232.57C763.983 235.89 764.042 238.831 764.187 241.382C764.319 243.937 764.483 245.929 764.687 247.363L762.151 247.359C761.71 246.902 761.245 246.448 760.765 245.995C760.284 245.538 759.733 245.031 759.112 244.468C758.487 243.909 757.753 243.281 756.913 242.581C756.065 241.878 755.085 241.038 753.96 240.054L729.378 218.882L729.358 232.835C729.354 235.245 729.472 237.171 729.71 238.605C729.948 240.038 730.358 241.14 730.94 241.909C731.522 242.679 732.28 243.198 733.198 243.464C734.124 243.726 735.292 243.894 736.702 243.964L736.698 246.8C736.054 246.726 735.019 246.601 733.585 246.425C732.159 246.249 730.3 246.159 728.007 246.156C725.714 246.152 723.854 246.234 722.429 246.409C721.003 246.581 719.968 246.702 719.323 246.773L719.327 243.941C720.694 243.839 721.819 243.558 722.702 243.105C723.589 242.652 724.284 241.902 724.788 240.851C725.292 239.804 725.636 238.417 725.819 236.683C726.003 234.956 726.097 232.761 726.101 230.101L726.112 221.394C726.116 218.003 725.604 215.472 724.558 213.812C723.515 212.152 721.788 211.21 719.374 210.999L719.378 208.163C720.581 208.343 721.78 208.491 722.964 208.616C724.151 208.741 725.351 208.804 726.558 208.808C727.644 208.808 728.737 208.749 729.843 208.628C730.952 208.507 732.046 208.359 733.132 208.183C733.214 208.781 733.472 209.402 733.917 210.05C734.354 210.698 734.878 211.327 735.479 211.941C736.081 212.554 736.702 213.14 737.347 213.698C737.991 214.261 738.573 214.749 739.097 215.171L760.604 232.984C760.687 231.273 760.729 229.296 760.733 227.058C760.737 224.82 760.741 222.597 760.741 220.394C760.745 218.37 760.616 216.761 760.358 215.57C760.101 214.382 759.698 213.464 759.159 212.816C758.612 212.167 757.921 211.726 757.077 211.499C756.229 211.273 755.206 211.12 754.003 211.05L754.007 208.214C754.565 208.288 755.522 208.409 756.87 208.589C758.214 208.765 759.917 208.855 761.968 208.859C764.022 208.859 765.718 208.777 767.065 208.605C768.413 208.429 769.366 208.308 769.933 208.238L769.929 211.073Z" fill="#2E2E2F"/>
<path d="M822.46 220.277C822.464 217.199 821.499 214.855 819.569 213.241C817.644 211.632 814.589 210.824 810.405 210.816C807.995 210.816 805.749 211.159 803.675 211.859C801.605 212.554 799.816 213.593 798.304 214.968C796.792 216.351 795.616 218.077 794.769 220.156C793.917 222.238 793.495 224.656 793.491 227.421C793.483 229.835 793.898 232.081 794.718 234.163C795.542 236.241 796.698 238.038 798.206 239.546C799.718 241.05 801.546 242.234 803.691 243.093C805.843 243.952 808.226 244.386 810.839 244.386C812.288 244.39 813.733 244.226 815.187 243.898C816.628 243.566 817.991 243.089 819.257 242.46C820.526 241.831 821.683 241.038 822.73 240.077C823.773 239.116 824.644 238.007 825.331 236.749L827.983 236.753C827.819 237.663 827.577 238.566 827.257 239.456C826.933 240.347 826.612 241.222 826.284 242.077C825.964 242.933 825.679 243.8 825.437 244.675C825.198 245.546 825.073 246.437 825.073 247.347C824.628 247.206 824.257 247.074 823.956 246.952C823.655 246.827 823.343 246.714 823.023 246.609C822.698 246.503 822.362 246.425 821.995 246.37C821.632 246.32 821.194 246.292 820.671 246.292C819.304 246.288 818.183 246.339 817.323 246.445C816.456 246.546 815.62 246.683 814.819 246.859C814.015 246.999 813.108 247.128 812.105 247.249C811.093 247.37 809.753 247.429 808.062 247.425C804.401 247.421 801.019 246.988 797.929 246.128C794.831 245.265 792.159 244.019 789.909 242.39C787.655 240.761 785.901 238.8 784.64 236.507C783.374 234.218 782.745 231.62 782.753 228.714C782.757 225.534 783.421 222.648 784.757 220.062C786.085 217.476 787.917 215.269 790.253 213.437C792.585 211.601 795.343 210.202 798.523 209.226C801.702 208.253 805.12 207.769 808.78 207.773C810.874 207.777 812.612 207.847 813.999 207.988C815.386 208.132 816.605 208.324 817.648 208.574C818.691 208.714 819.648 208.917 820.515 209.179C821.374 209.441 822.312 209.577 823.316 209.577C823.878 209.577 824.546 209.527 825.308 209.421C826.073 209.316 826.694 209.179 827.183 209.007C826.733 209.671 826.433 210.491 826.269 211.468C826.105 212.449 825.983 213.464 825.905 214.511C825.823 215.562 825.737 216.593 825.659 217.605C825.573 218.62 825.433 219.511 825.233 220.281L822.46 220.277Z" fill="#2E2E2F"/>
<path d="M296.362 92.3548C294.319 92.3509 292.441 91.8821 290.616 90.9251C287.191 89.1985 285.257 86.4173 284.648 82.4016C283.987 78.1009 285.066 73.9016 287.941 69.5579C290.792 65.4212 294.464 62.6009 299.136 60.972C301.198 60.2571 303.159 59.8938 304.968 59.8977C306.991 59.9016 308.851 60.343 310.652 61.2493C313.995 63.0071 315.929 65.8313 316.507 69.8587C317.112 74.1477 316.019 78.2649 313.155 82.4368C310.253 86.7962 306.616 89.6868 302.011 91.304C300.019 92.0032 298.116 92.3548 296.362 92.3548Z" fill="#2E2E2F"/>
<path d="M824.101 90.0696C815.976 90.0579 807.323 92.4368 802.827 99.3508C799.366 104.671 798.081 110.972 797.093 117.245C795.589 126.8 793.702 143.546 804.405 148.804L806.569 149.866L808.284 148.304C809.44 147.249 811.569 144.898 816.702 136.683C825.257 123.761 830.589 112.413 832.589 102.745C833.444 95.3196 828.315 90.7844 825.726 90.218C825.198 90.1204 824.651 90.0696 824.101 90.0696ZM418.972 155.82C424.854 160.136 439.097 144.777 441.944 141.816C448.167 135.351 454.472 128.956 460.726 122.527C467.87 115.183 475.393 107.085 476.686 96.9212C476.972 94.679 474.979 91.8274 472.327 91.6633C462.081 91.0305 452.503 95.6048 444.8 102.062C438.925 106.98 434.015 112.929 429.261 118.937C421.995 128.116 416.675 138.542 416.858 150.515C416.874 151.538 416.936 152.581 417.319 153.531C417.741 154.581 418.304 155.327 418.972 155.82ZM668.565 96.7454C659.581 99.2493 651.745 106.445 645.347 112.659C636.108 121.628 627.354 132.714 624.64 145.777C624.058 148.566 623.952 151.644 625.429 154.081C629.882 161.417 637.772 157.507 642.851 153.456C659.495 140.175 673.866 124.113 686.944 107.37C693.425 99.0696 680.479 95.6438 674.319 95.843C672.354 95.9055 670.436 96.2258 668.565 96.7454ZM776.464 103.23C768.608 110.288 761.772 118.956 757.901 128.855C754.491 137.57 752.14 151.886 759.37 159.452C762.249 162.464 766.511 163.683 770.62 164.363C780.218 165.952 794.222 165.019 799.995 155.699L801.257 153.663L799.183 152.218C781.815 137.695 789.382 98.8587 794.253 90.1438C794.319 90.6126 787.491 93.7649 785.339 95.5657C782.487 97.9563 779.476 100.527 776.464 103.23ZM125.382 129.902C124.538 129.902 123.679 129.902 122.804 129.906C105.483 129.976 93.1552 131.116 85.1161 133.398L84.0263 133.706L83.413 134.55C82.1122 136.335 77.6982 142.949 70.288 154.21C62.7529 165.667 57.1982 176.956 53.7763 187.769C53.6083 188.304 53.1591 189.722 54.249 190.964C54.8818 191.691 55.8466 192.109 56.8974 192.109C58.2841 192.109 59.2646 191.425 60.0419 190.753L60.1083 190.695L60.1708 190.636C66.0029 184.972 74.2216 180.074 84.5966 176.077C95.2177 171.995 106.55 168.671 118.276 166.191C130.147 163.691 141.991 161.753 153.487 160.437C165.054 159.105 176.124 158.116 186.393 157.499L189.768 157.296L189.335 154.378C188.608 149.456 185.354 145.027 179.663 141.202C174.358 137.636 167.249 134.714 158.538 132.519C152.175 130.788 141.308 129.925 125.382 129.902ZM185.089 165.874C163.561 166.574 144.476 168.445 128.37 171.441C112.128 174.464 98.663 178.464 88.3544 183.324C77.4326 188.472 70.9951 195.046 69.2294 202.866C68.0693 207.648 69.4091 211.835 73.1083 214.949C76.4091 217.718 80.1865 219.648 84.331 220.679C89.4912 221.949 94.9247 222.597 100.483 222.605C105.448 222.613 110.643 222.109 115.925 221.109C126.905 219.034 137.515 215.46 147.448 210.48C157.37 205.507 166.163 199.37 173.585 192.245C181.14 184.972 186.093 177.249 188.308 169.296L189.3 165.738L185.089 165.874ZM97.3935 231.624C80.5419 231.019 63.0185 225.366 55.581 210.71C54.0537 207.702 51.6513 203.749 48.4755 204.89C46.749 205.507 45.9286 207.429 45.3036 209.152C43.6396 213.726 41.9755 218.296 40.3076 222.87C35.3388 220.101 32.6435 214.292 32.2411 208.616C31.8427 203.015 33.3505 197.46 35.0732 192.109C38.5537 181.288 42.7138 170.702 47.6201 160.449C61.9091 130.605 78.0771 100.937 100.358 76.2727C109.999 65.5969 121.034 55.7258 134.354 50.2962C147.671 44.8626 163.636 44.4407 175.905 51.9485C146.136 63.0071 123.858 87.679 102.827 111.476C101.921 112.495 100.956 113.741 101.237 115.077C101.69 117.191 104.585 117.429 106.733 117.159C138.893 113.085 170.647 105.816 201.378 95.4876C222.112 88.5188 242.78 79.9212 259.366 65.6516C266.354 59.6399 272.999 50.343 269.331 41.8821C267.495 37.6555 263.448 34.8157 259.452 32.5657C248.518 26.4055 236.323 22.8157 223.839 21.5344C147.19 13.6829 68.1747 32.5423 3.16302 73.8274C-0.954163 68.3665 -0.778381 60.5227 2.11615 54.3235C5.37006 47.3704 11.5224 42.1594 17.6826 37.7102C26.4482 31.3821 35.9404 26.0813 45.999 22.1126C100.155 0.733656 160.159 -5.11791 217.542 4.4485C228.663 6.30006 239.589 9.22584 250.241 12.9212C261.272 16.7454 274.265 22.2844 279.077 33.4915C282.272 40.929 281.151 49.718 277.538 56.9563C273.921 64.1985 268.046 70.0696 261.722 75.1204C232.233 98.6751 193.39 105.808 156.788 115.027C155.46 115.363 146.647 117.171 147.378 118.331C149.28 121.355 156.964 122.495 160.714 122.292C173.042 121.636 185.843 122.214 196.979 127.542C208.116 132.866 217.241 143.886 217.183 156.23L246.499 158.269C244.983 144.027 247.847 129.351 254.604 116.726C257.515 111.288 261.315 106.054 266.729 103.097C272.143 100.14 279.448 99.9993 284.069 104.085C285.183 105.066 286.155 106.386 286.14 107.87C286.124 109.831 284.464 111.324 282.991 112.616C272.159 122.132 264.468 135.167 261.378 149.249C260.804 151.874 260.409 154.749 261.628 157.148C263.28 160.398 267.491 161.667 271.073 160.976C274.655 160.288 277.733 158.077 280.612 155.831C287.292 150.624 293.593 144.925 299.448 138.8C302.479 135.628 305.393 132.343 308.179 128.956C310.401 126.245 313.163 123.359 314.515 120.062C317.893 111.8 322.038 103.866 328.073 97.2883C335.659 89.0149 343.421 81.2493 353.866 76.8274C368.265 70.7298 385.561 71.3508 397.768 81.8821C400.499 84.2337 403.042 87.4212 402.757 91.0149C402.581 93.2141 401.366 95.1751 400.183 97.0383C395.933 103.734 391.686 110.425 387.436 117.116C385.843 116.558 384.214 115.98 382.909 114.906C381.604 113.835 380.667 112.156 380.944 110.491C381.159 109.191 382.054 108.124 382.909 107.124C386.538 102.902 395.515 95.6673 393.351 89.1633C392.804 87.5071 391.444 86.2454 389.995 85.2766C384.788 81.804 378.405 81.6633 372.655 83.7727C360.944 88.0696 351.011 97.5071 343.183 106.886C337.643 113.523 333.632 120.757 330.542 127.093C327.448 133.519 325.597 140.109 325.042 146.687C324.425 154.027 330.878 161.636 336.19 164.851L336.409 164.984L336.643 165.081C339.749 166.359 343.155 167.011 346.776 167.019C349.3 167.023 351.979 166.71 354.745 166.089C361.108 164.667 367.616 161.784 374.081 157.511C380.331 153.39 385.643 149.316 389.87 145.406C393.917 141.648 397.601 138.37 400.815 135.663C402.64 134.128 404.706 132.359 407.128 130.249L407.522 129.906L407.761 129.46C409.249 126.683 410.944 123.816 412.851 120.878C419.944 109.144 428.929 98.886 439.561 90.386C450.085 82.1165 459.983 77.9212 468.956 77.9329C474.436 77.9407 479.784 79.5344 484.847 82.6712C489.331 85.3235 493.507 88.3548 497.339 91.7219C491.804 92.2493 489.714 92.7298 488.601 93.0696L488.456 93.1165C485.972 93.9876 485.518 95.4876 485.472 96.3001C485.284 99.4993 500.878 112.503 501.542 112.027C496.421 115.714 492.573 120.906 489.257 126.202C485.858 131.628 482.038 137.491 480.464 143.753C479.28 148.456 479.636 153.788 482.632 157.64C491.276 168.738 507.847 151.054 513.862 145.472C525.339 134.82 539.042 124.847 547.393 111.366L548.351 109.82L547.151 108.406C543.511 104.116 542.518 99.8469 544.136 95.2962C545.667 90.6204 548.726 86.3118 553.226 82.4915C557.772 78.5462 563.081 75.3938 569.022 73.0891C576.304 70.304 584.694 68.7766 591.71 73.1126C587.573 77.1907 582.042 79.4485 576.999 82.3313C572.413 84.9524 563.862 91.1321 565.319 97.5501C565.925 101.531 572.018 105.667 581.268 110.616C587.589 114.218 588.331 116.277 588.409 116.82C588.436 116.991 588.483 117.347 587.862 117.949C586.518 119.124 583.585 121.738 577.999 126.753C571.233 132.831 564.183 143.058 562.624 152.113C562.245 154.312 562.229 156.699 563.327 158.644C564.534 160.769 566.936 162.031 569.362 162.3C578.886 163.359 591.444 153.972 597.546 147.542C604.948 139.749 610.323 134.179 613.089 131.433C615.933 128.495 619.308 124.038 621.882 121.616L622.194 121.32C627.776 111.488 635.597 102.749 643.925 95.0774C652.386 87.2844 664.12 81.8001 675.315 84.4524C683.393 86.3704 689.913 92.136 696.069 97.7063C706.518 74.1751 718.585 51.1321 734.866 31.1907C740.436 24.3704 746.792 17.718 755.03 14.6165C763.268 11.511 773.808 12.9446 779.007 20.0501C756.425 35.7454 739.405 58.0969 723.862 80.7844C709.354 101.964 695.452 124.652 691.909 150.077C691.378 153.906 691.413 158.523 694.573 160.745C696.14 161.843 698.159 162.074 700.073 162.011C707.581 161.769 714.429 157.667 720.253 152.925C732.347 143.081 741.507 130.195 750.835 117.702C760.167 105.206 770.058 92.7258 783.085 84.1594C796.116 75.593 812.968 71.4446 827.561 76.9368C830.909 78.1985 834.159 80.0032 836.421 82.7805C840.354 87.6048 840.636 94.4407 839.776 100.609C837.058 120.097 825.112 137.05 811.847 151.581C820.823 155.296 831.354 151.894 839.171 146.12C846.983 140.351 853.776 133.909 860.722 127.113C864.378 123.534 869.136 119.714 873.382 120.507C863.858 127.05 856.452 136.167 847.968 144.015C839.483 151.859 829.108 158.722 817.558 158.991C813.522 159.085 809.362 158.378 805.522 159.628C802.304 160.675 799.683 162.98 796.983 165.023C789.464 170.71 780.405 174.745 770.979 174.866C761.55 174.988 751.819 170.745 746.714 162.824C741.745 155.113 741.679 145.296 742.405 136.156C736.518 145.152 728.999 153.062 721.229 160.488C714.901 166.534 707.089 173.648 698.018 174.495C689.202 175.316 681.683 166.991 680.065 158.284C678.448 149.577 681.132 140.718 683.651 132.234C684.167 130.491 684.636 128.46 683.573 126.988C681.476 124.07 676.972 126.773 674.604 129.48C665.452 139.964 656.3 150.452 647.147 160.937C641.05 167.925 632.944 175.613 623.921 173.476C617.069 171.851 612.667 164.718 611.952 157.714C611.233 150.714 613.409 143.773 615.558 137.07C613.979 139.234 609.022 144.093 606.768 146.339C603.604 149.484 600.347 152.534 596.995 155.484C590.335 161.343 583.147 167.816 575.405 172.214C571.327 174.531 564.241 174.523 559.71 173.253C553.761 171.581 551.155 166.101 550.37 160.343C549.229 152.109 551.819 142.054 558.104 130.382C560.472 125.64 558.87 121.218 553.601 117.933L552.538 117.406L550.659 118.667C541.151 125.054 533.104 134.081 524.749 141.89C517.952 148.238 511.155 154.589 504.358 160.937C498.222 166.667 492.042 172.218 483.069 172.206C480.979 172.202 479.03 171.738 477.112 170.788C472.811 168.07 470.163 164.491 469.026 159.851C466.983 151.167 467.839 140.835 471.628 128.96C471.792 128.249 472.175 126.581 470.968 125.3C470.308 124.601 469.331 124.199 468.288 124.195C466.78 124.195 465.651 124.999 464.839 125.706C464.839 125.706 464.737 125.788 464.647 125.882C462.679 127.913 458.284 132.57 451.214 140.124C443.94 147.886 435.577 156.437 426.386 165.511C424.843 167.034 423.163 168.452 421.456 169.792C419.241 171.527 416.897 173.515 413.956 173.749C411.616 173.933 409.304 172.913 407.491 171.421C402.147 167.034 400.198 160.507 400.276 153.824C400.3 151.679 400.558 149.378 401.042 146.991L402.522 140.913L395.331 147.245C391.827 150.335 388.601 153.171 385.659 155.753C378.558 161.991 371.038 166.98 362.007 169.898C350.468 173.628 337.198 174.991 325.612 170.831C317.581 167.839 312.839 162.113 311.147 153.339L311.112 153.195C310.171 149.507 309.831 145.437 310.112 141.089L310.315 135.382L304.319 140.933C301.175 143.839 297.952 146.886 294.452 150.406C291.917 152.734 289.366 155.081 286.827 157.409C279.983 163.48 271.101 174.866 259.776 172.077C256.968 171.386 254.581 169.605 252.03 168.238C242.659 163.23 231.39 163.976 220.8 164.855C219.116 164.995 217.374 165.156 215.905 165.984C214.214 166.941 213.116 168.652 212.05 170.277C188.589 205.995 147.483 229.488 104.8 231.574C102.366 231.695 99.8857 231.714 97.3935 231.624Z" fill="#2E2E2F"/>
</svg>
